<svg width="470" height="200" viewBox="0 0 470 200" fill="none" xmlns="http://www.w3.org/2000/svg">
<g clip-path="url(#clip0_1027_7605)">
<path d="M150.869 159.555H129.432V197.169H77.457V159.555H0V121.132L80.895 2.83112H129.432V120.324H150.869V159.555ZM77.457 120.324V97.6744C77.457 93.4277 77.6592 87.7654 77.8615 80.4853C78.2659 73.2052 78.4682 69.5652 78.6704 69.1607H77.2547C74.2212 76.0364 70.7831 82.3053 66.9406 88.3721L45.5034 120.324H77.457Z" fill="#0096FF"/>
<path d="M304.974 100.303C304.974 134.681 299.109 159.96 287.784 175.935C276.256 191.911 258.662 200 234.798 200C211.54 200 194.148 191.709 182.216 174.924C170.486 158.14 164.621 133.266 164.621 100.303C164.621 65.7229 170.284 40.4449 182.014 24.2669C193.541 8.08898 211.136 0 235 0C258.055 0 275.65 8.49343 287.379 25.2781C299.109 42.0627 304.974 66.9363 304.974 100.303ZM216.798 100.303C216.798 122.346 218.214 137.513 220.843 145.602C223.674 153.893 228.124 157.937 234.595 157.937C241.067 157.937 245.718 153.691 248.55 145.197C251.179 136.704 252.594 121.739 252.594 100.303C252.594 78.6653 251.179 63.7007 248.55 55.0051C245.718 46.3094 241.269 42.0627 234.798 42.0627C228.326 42.0627 223.674 46.3094 221.045 54.6006C218.214 62.8918 216.798 78.0586 216.798 100.303Z" fill="#0096FF"/>
<path d="M470.002 159.555H448.565V197.169H396.59V159.555H319.133V121.132L400.028 2.83105H448.565V120.323H470.002V159.555ZM396.792 120.323V97.6743C396.792 93.4276 396.994 87.7653 397.196 80.4852C397.601 73.2052 397.803 69.5651 398.005 69.1607H396.59C393.556 76.0363 390.118 82.3053 386.276 88.372L364.636 120.526H396.792V120.323Z" fill="#0096FF"/>
</g>
<g clip-path="url(#clip1_1027_7605)">
<path d="M289.801 118.693C307.064 118.693 321.059 104.693 321.059 87.4217C321.059 70.1508 307.064 56.1499 289.801 56.1499C272.538 56.1499 258.543 70.1508 258.543 87.4217C258.543 104.693 272.538 118.693 289.801 118.693Z" fill="white"/>
<path d="M186.961 118.694C204.224 118.694 218.219 104.693 218.219 87.4218C218.219 70.1509 204.224 56.15 186.961 56.15C169.698 56.15 155.703 70.1509 155.703 87.4218C155.703 104.693 169.698 118.694 186.961 118.694Z" fill="white"/>
<path d="M205.338 62.1826C208.537 67.1073 210.383 72.9349 210.383 79.2549C210.383 96.5323 196.395 110.527 179.125 110.527C172.234 110.527 165.876 108.269 160.707 104.494C166.286 113.03 175.926 118.693 186.919 118.693C204.189 118.693 218.177 104.699 218.177 87.4216C218.177 77.0388 213.132 67.846 205.338 62.1826Z" fill="#EFEFEF"/>
<path d="M308.178 62.1828C311.377 67.1075 313.223 72.935 313.223 79.2551C313.223 96.5325 299.235 110.527 281.965 110.527C275.074 110.527 268.715 108.27 263.547 104.494C269.126 113.071 278.766 118.694 289.759 118.694C307.029 118.694 321.017 104.699 321.017 87.4218C321.017 77.0389 315.93 67.8462 308.178 62.1828Z" fill="#EFEFEF"/>
<path d="M186.959 120.13C168.951 120.13 154.266 105.438 154.266 87.422C154.266 69.4059 168.91 54.7139 186.959 54.7139C204.967 54.7139 219.653 69.4059 219.653 87.422C219.653 105.438 204.967 120.13 186.959 120.13ZM186.959 57.5866C170.51 57.5866 157.137 70.9653 157.137 87.422C157.137 103.879 170.51 117.257 186.959 117.257C203.409 117.257 216.781 103.879 216.781 87.422C216.781 70.9653 203.409 57.5866 186.959 57.5866Z" fill="#171142"/>
<path d="M186.961 107.038C195.321 107.038 202.098 100.259 202.098 91.8951C202.098 83.5316 195.321 76.7516 186.961 76.7516C178.601 76.7516 171.824 83.5316 171.824 91.8951C171.824 100.259 178.601 107.038 186.961 107.038Z" fill="#171142"/>
<path d="M183.229 95.3425C186.65 95.3425 189.423 92.5681 189.423 89.1456C189.423 85.7232 186.65 82.9487 183.229 82.9487C179.808 82.9487 177.035 85.7232 177.035 89.1456C177.035 92.5681 179.808 95.3425 183.229 95.3425Z" fill="white"/>
<path d="M289.799 120.13C271.791 120.13 257.105 105.438 257.105 87.422C257.105 69.4059 271.791 54.7139 289.799 54.7139C307.807 54.7139 322.493 69.4059 322.493 87.422C322.493 105.438 307.807 120.13 289.799 120.13ZM289.799 57.5866C273.35 57.5866 259.977 70.9653 259.977 87.422C259.977 103.879 273.35 117.257 289.799 117.257C306.248 117.257 319.621 103.879 319.621 87.422C319.621 70.9653 306.248 57.5866 289.799 57.5866Z" fill="#171142"/>
<path d="M289.801 107.038C298.161 107.038 304.937 100.258 304.937 91.8949C304.937 83.5314 298.161 76.7515 289.801 76.7515C281.441 76.7515 274.664 83.5314 274.664 91.8949C274.664 100.258 281.441 107.038 289.801 107.038Z" fill="#171142"/>
<path d="M286.069 95.3425C289.49 95.3425 292.263 92.5681 292.263 89.1456C292.263 85.7232 289.49 82.9487 286.069 82.9487C282.648 82.9487 279.875 85.7232 279.875 89.1456C279.875 92.5681 282.648 95.3425 286.069 95.3425Z" fill="white"/>
<path d="M149.755 21.554C156.154 27.8741 162.472 17.0808 183.064 14.3722C200.252 12.1151 210.671 19.2969 213.83 14.2491C216.947 9.16024 203.615 1.48593 178.347 3.78412C159.6 5.50776 142.33 14.2491 149.755 21.554Z" fill="#171142"/>
<path d="M317.817 18.7224C309.818 14.2081 306.126 26.2736 286.026 34.1531C269.29 40.7193 256.983 36.3692 255.096 42.0736C253.168 47.778 268.51 51.8409 293.369 43.2227C311.869 36.7796 327.088 23.9343 317.817 18.7224Z" fill="#171142"/>
<path d="M178.223 189.445C178.223 189.445 201.153 143.317 241.805 144.343C282.457 145.41 296.24 173.645 296.24 173.645C296.24 173.645 278.847 157.065 245.374 159.61C202.097 162.893 178.223 189.445 178.223 189.445Z" fill="#171142"/>
<path d="M294.23 161.374C296.445 163.96 297.962 167.12 298.701 170.444C299.357 173.44 299.644 177.421 297.347 179.842C296.281 180.991 294.681 181.689 293.122 181.319C291.809 180.991 291.235 183.002 292.548 183.33C294.353 183.782 296.281 183.33 297.798 182.222C299.398 181.032 300.424 179.267 300.875 177.298C301.777 173.44 300.834 169.172 299.275 165.56C298.373 163.467 297.142 161.58 295.706 159.856C295.337 159.404 294.599 159.487 294.23 159.856C293.778 160.307 293.86 160.923 294.23 161.374Z" fill="#171142"/>
<path d="M180.848 194.493C177.935 194.903 174.736 193.508 172.972 191.127C171.085 188.542 170.88 184.931 172.397 182.099C173.054 180.909 171.249 179.842 170.592 181.032C169.116 183.74 168.87 187.106 170.018 189.978C171.126 192.851 173.464 194.985 176.376 196.052C178.017 196.627 179.699 196.75 181.422 196.504C181.996 196.422 182.283 195.724 182.16 195.19C181.996 194.616 181.422 194.411 180.848 194.493Z" fill="#171142"/>
</g>
<defs>
<clipPath id="clip0_1027_7605">
<rect width="470" height="200" fill="white"/>
</clipPath>
<clipPath id="clip1_1027_7605">
<rect width="174.503" height="193.253" fill="white" transform="translate(147.992 3.37354)"/>
</clipPath>
</defs>
</svg>
