<svg width="186" height="21" viewBox="0 0 186 21" fill="none" xmlns="http://www.w3.org/2000/svg">
<path d="M0.43 16V0.599999H11.98V3.68H3.73V6.76H10.33V9.62H3.73V12.92H11.98V16H0.43ZM14.0674 16V4.78H17.1474V6.32H17.2574C17.4481 5.98267 17.7194 5.67467 18.0714 5.396C18.8781 4.76533 19.7801 4.45 20.7774 4.45C22.1708 4.45 23.2488 4.85333 24.0114 5.66C24.7888 6.46667 25.1774 7.64 25.1774 9.18V16H22.0974V9.62C22.0974 8.79867 21.8921 8.17533 21.4814 7.75C21.0854 7.31 20.5208 7.09 19.7874 7.09C19.0541 7.09 18.4308 7.36867 17.9174 7.926C17.4041 8.48333 17.1474 9.19467 17.1474 10.06V16H14.0674ZM28.5732 14.614C27.4145 13.4553 26.8352 12.0473 26.8352 10.39C26.8352 8.73267 27.4145 7.332 28.5732 6.188C29.7465 5.02933 31.1838 4.45 32.8852 4.45C34.6158 4.45 36.0385 5.022 37.1532 6.166C38.2678 7.31 38.8252 8.718 38.8252 10.39V11.05H30.0252C30.1425 11.7833 30.4725 12.4067 31.0152 12.92C31.5578 13.4333 32.1812 13.69 32.8852 13.69C33.6625 13.69 34.3298 13.47 34.8872 13.03C35.1072 12.8393 35.2832 12.6193 35.4152 12.37H38.7152C38.4658 13.118 38.0992 13.778 37.6152 14.35C36.4418 15.67 34.8652 16.33 32.8852 16.33C31.1838 16.33 29.7465 15.758 28.5732 14.614ZM30.1352 9.18H35.5252C35.4078 8.59333 35.1072 8.102 34.6232 7.706C34.1538 7.29533 33.5745 7.09 32.8852 7.09C32.1958 7.09 31.6092 7.288 31.1252 7.684C30.6412 8.08 30.3112 8.57867 30.1352 9.18ZM40.6866 16V4.78H43.7666V6.43H43.8766C44.0086 6.078 44.2066 5.77 44.4706 5.506C45.0719 4.87533 45.8272 4.56 46.7366 4.56H48.0566V7.53H46.4066C45.5706 7.53 44.9179 7.75733 44.4486 8.212C43.9939 8.652 43.7666 9.268 43.7666 10.06V16H40.6866ZM50.5486 14.482C49.5512 13.3967 49.0526 11.996 49.0526 10.28C49.0526 8.564 49.5512 7.16333 50.5486 6.078C51.5459 4.99267 52.7706 4.45 54.2226 4.45C55.1906 4.45 56.0779 4.75067 56.8846 5.352C57.2219 5.63067 57.5079 5.924 57.7426 6.232H57.8526V4.78H60.9326V20.18H50.7026V17.54H57.8526V14.328H57.7426C57.4932 14.68 57.2072 14.9807 56.8846 15.23C56.0926 15.8167 55.2052 16.11 54.2226 16.11C52.7706 16.11 51.5459 15.5673 50.5486 14.482ZM53.0346 7.948C52.5066 8.52 52.2426 9.29733 52.2426 10.28C52.2426 11.2627 52.5066 12.04 53.0346 12.612C53.5626 13.184 54.2519 13.47 55.1026 13.47C55.9092 13.47 56.5692 13.184 57.0826 12.612C57.5959 12.04 57.8526 11.2627 57.8526 10.28C57.8526 9.29733 57.5959 8.52 57.0826 7.948C56.5692 7.376 55.9092 7.09 55.1026 7.09C54.2519 7.09 53.5626 7.376 53.0346 7.948ZM62.3626 4.78H65.5526L67.7526 13.36H68.6326L71.0526 4.78H74.2426L69.7326 20.18H66.5426L67.7526 16H65.3326L62.3626 4.78ZM81.8343 16V0.599999H86.7843L90.5243 9.4H91.0743L94.8143 0.599999H99.7643V16H96.4643V6.21L96.6843 4.23H96.4643L92.9443 12.48H88.6543L85.1343 4.23H84.9143L85.1343 6.21V16H81.8343ZM103.228 14.702C102.245 13.602 101.754 12.1647 101.754 10.39C101.754 8.61533 102.245 7.18533 103.228 6.1C104.225 5 105.457 4.45 106.924 4.45C107.906 4.45 108.794 4.74333 109.586 5.33C109.923 5.60867 110.209 5.902 110.444 6.21H110.554V4.78H113.634V16H110.554V14.57H110.444C110.209 14.878 109.923 15.1713 109.586 15.45C108.794 16.0367 107.906 16.33 106.924 16.33C105.457 16.33 104.225 15.7873 103.228 14.702ZM105.714 7.97C105.2 8.55667 104.944 9.36333 104.944 10.39C104.944 11.4167 105.2 12.2233 105.714 12.81C106.227 13.3967 106.887 13.69 107.694 13.69C108.544 13.69 109.234 13.404 109.762 12.832C110.29 12.2453 110.554 11.4313 110.554 10.39C110.554 9.34867 110.29 8.542 109.762 7.97C109.234 7.38333 108.544 7.09 107.694 7.09C106.887 7.09 106.227 7.38333 105.714 7.97ZM114.844 16L118.144 10.28L115.064 4.78H118.474L120.564 8.96H121.114L123.204 4.78H126.614L123.534 10.28L126.834 16H123.424L121.114 11.6H120.564L118.254 16H114.844ZM128.328 2.866C127.991 2.52867 127.822 2.14 127.822 1.7C127.822 1.26 127.991 0.878666 128.328 0.556C128.68 0.218666 129.098 0.0499995 129.582 0.0499995C130.066 0.0499995 130.477 0.218666 130.814 0.556C131.166 0.878666 131.342 1.26 131.342 1.7C131.342 2.14 131.166 2.52867 130.814 2.866C130.477 3.18867 130.066 3.35 129.582 3.35C129.098 3.35 128.68 3.18867 128.328 2.866ZM128.042 16V4.78H131.122V16H128.042ZM133.542 16V4.78H136.622V6.32H136.732C136.937 5.95333 137.187 5.64533 137.48 5.396C138.199 4.76533 139.049 4.45 140.032 4.45C141.205 4.45 142.188 4.802 142.98 5.506C143.303 5.814 143.567 6.15867 143.772 6.54H143.882C144.087 6.15867 144.351 5.814 144.674 5.506C145.466 4.802 146.412 4.45 147.512 4.45C148.861 4.45 149.91 4.86067 150.658 5.682C151.421 6.48867 151.802 7.65467 151.802 9.18V16H148.722V9.51C148.722 7.89667 148.025 7.09 146.632 7.09C145.957 7.09 145.385 7.354 144.916 7.882C144.447 8.41 144.212 9.09933 144.212 9.95V16H141.132V9.51C141.132 7.89667 140.435 7.09 139.042 7.09C138.367 7.09 137.795 7.354 137.326 7.882C136.857 8.41 136.622 9.09933 136.622 9.95V16H133.542ZM154.103 11.6V4.78H157.183V11.16C157.183 11.9813 157.381 12.612 157.777 13.052C158.187 13.4773 158.759 13.69 159.493 13.69C160.226 13.69 160.849 13.4113 161.363 12.854C161.876 12.2967 162.133 11.5853 162.133 10.72V4.78H165.213V16H162.133V14.46H162.023C161.847 14.7973 161.575 15.1127 161.209 15.406C160.417 16.022 159.515 16.33 158.503 16.33C157.109 16.33 156.024 15.9267 155.247 15.12C154.484 14.3133 154.103 13.14 154.103 11.6ZM167.638 16V4.78H170.718V6.32H170.828C171.033 5.95333 171.282 5.64533 171.576 5.396C172.294 4.76533 173.145 4.45 174.128 4.45C175.301 4.45 176.284 4.802 177.076 5.506C177.398 5.814 177.662 6.15867 177.868 6.54H177.978C178.183 6.15867 178.447 5.814 178.77 5.506C179.562 4.802 180.508 4.45 181.608 4.45C182.957 4.45 184.006 4.86067 184.754 5.682C185.516 6.48867 185.898 7.65467 185.898 9.18V16H182.818V9.51C182.818 7.89667 182.121 7.09 180.728 7.09C180.053 7.09 179.481 7.354 179.012 7.882C178.542 8.41 178.308 9.09933 178.308 9.95V16H175.228V9.51C175.228 7.89667 174.531 7.09 173.138 7.09C172.463 7.09 171.891 7.354 171.422 7.882C170.952 8.41 170.718 9.09933 170.718 9.95V16H167.638Z" fill="#0096FF"/>
</svg>
