<svg width="18" height="18" viewBox="0 0 18 18" fill="none" xmlns="http://www.w3.org/2000/svg">
<path fill-rule="evenodd" clip-rule="evenodd" d="M0.666626 3.64294C0.666626 1.99923 1.99911 0.666748 3.64282 0.666748H3.98451C5.3412 0.666748 6.56122 1.49274 7.06508 2.7524L7.6888 4.31168C8.06632 5.2555 7.84506 6.3335 7.12627 7.05229L6.95398 7.22457C6.79072 7.38783 6.75024 7.63726 6.8535 7.84377C7.56812 9.27302 8.72703 10.4319 10.1563 11.1465C10.3628 11.2498 10.6122 11.2093 10.7755 11.0461L10.9478 10.8738C11.6665 10.155 12.7445 9.93372 13.6884 10.3112L15.2476 10.935C16.5073 11.4388 17.3333 12.6588 17.3333 14.0155V14.3572C17.3333 16.0009 16.0008 17.3334 14.3571 17.3334C6.79606 17.3334 0.666626 11.204 0.666626 3.64294ZM3.64282 2.33341C2.91959 2.33341 2.33329 2.91971 2.33329 3.64294C2.33329 10.2835 7.71654 15.6667 14.3571 15.6667C15.0803 15.6667 15.6666 15.0805 15.6666 14.3572V14.0155C15.6666 13.3403 15.2556 12.7332 14.6287 12.4824L13.0694 11.8587C12.7446 11.7288 12.3736 11.8049 12.1263 12.0523L11.954 12.2246C11.2835 12.8951 10.2591 13.0613 9.41091 12.6373C7.65912 11.7614 6.23868 10.3409 5.36279 8.58913C4.93871 7.74096 5.10494 6.71659 5.77547 6.04606L5.94775 5.87378C6.19511 5.62642 6.27125 5.25546 6.14133 4.93067L5.51762 3.37138C5.26686 2.74449 4.65969 2.33341 3.98451 2.33341H3.64282Z" fill="#454168"/>
</svg>
