<svg width="30" height="30" viewBox="0 0 30 30" fill="none" xmlns="http://www.w3.org/2000/svg">
<g filter="url(#filter0_d_283_11019)">
<g clip-path="url(#clip0_283_11019)">
<mask id="mask0_283_11019" style="mask-type:luminance" maskUnits="userSpaceOnUse" x="-1" y="0" width="32" height="25">
<rect x="-1" y="0.999512" width="32" height="24" fill="white"/>
</mask>
<g mask="url(#mask0_283_11019)">
<path fill-rule="evenodd" clip-rule="evenodd" d="M-1 0.999512V24.9995H31V0.999512H-1Z" fill="#3D58DB"/>
<mask id="mask1_283_11019" style="mask-type:luminance" maskUnits="userSpaceOnUse" x="-1" y="0" width="32" height="25">
<path fill-rule="evenodd" clip-rule="evenodd" d="M-1 0.999512V24.9995H31V0.999512H-1Z" fill="white"/>
</mask>
<g mask="url(#mask1_283_11019)">
<path fill-rule="evenodd" clip-rule="evenodd" d="M-1 0.999512V8.99951H31V0.999512H-1Z" fill="#F7FCFF"/>
<path fill-rule="evenodd" clip-rule="evenodd" d="M-1 16.9995V24.9995H31V16.9995H-1Z" fill="#C51918"/>
</g>
</g>
<rect x="-1" y="0.999512" width="32" height="24" fill="url(#paint0_linear_283_11019)" style="mix-blend-mode:overlay"/>
</g>
<rect x="3.5" y="1.49951" width="23" height="23" rx="11.5" stroke="black" stroke-opacity="0.1" style="mix-blend-mode:multiply"/>
</g>
<defs>
<filter id="filter0_d_283_11019" x="0" y="-0.000488281" width="30" height="30" filterUnits="userSpaceOnUse" color-interpolation-filters="sRGB">
<feFlood flood-opacity="0" result="BackgroundImageFix"/>
<feColorMatrix in="SourceAlpha" type="matrix" values="0 0 0 0 0 0 0 0 0 0 0 0 0 0 0 0 0 0 127 0" result="hardAlpha"/>
<feOffset dy="2"/>
<feGaussianBlur stdDeviation="1.5"/>
<feColorMatrix type="matrix" values="0 0 0 0 0 0 0 0 0 0 0 0 0 0 0 0 0 0 0.1 0"/>
<feBlend mode="normal" in2="BackgroundImageFix" result="effect1_dropShadow_283_11019"/>
<feBlend mode="normal" in="SourceGraphic" in2="effect1_dropShadow_283_11019" result="shape"/>
</filter>
<linearGradient id="paint0_linear_283_11019" x1="15" y1="0.999512" x2="15" y2="24.9995" gradientUnits="userSpaceOnUse">
<stop stop-color="white" stop-opacity="0.7"/>
<stop offset="1" stop-opacity="0.3"/>
</linearGradient>
<clipPath id="clip0_283_11019">
<rect x="3" y="0.999512" width="24" height="24" rx="12" fill="white"/>
</clipPath>
</defs>
</svg>
