<svg width="24" height="24" viewBox="0 0 24 24" fill="none" xmlns="http://www.w3.org/2000/svg">
<g clip-path="url(#clip0_116_336)">
<path fill-rule="evenodd" clip-rule="evenodd" d="M0.562933 2.69513C0 3.77882 0 5.20255 0 8.05V15.95C0 18.7975 0 20.2212 0.562933 21.3049C1.03731 22.2181 1.78191 22.9627 2.69513 23.4371C3.77882 24 5.20255 24 8.05 24H15.95C18.7975 24 20.2212 24 21.3049 23.4371C22.2181 22.9627 22.9627 22.2181 23.4371 21.3049C24 20.2212 24 18.7975 24 15.95V8.05C24 5.20255 24 3.77882 23.4371 2.69513C22.9627 1.78191 22.2181 1.03731 21.3049 0.562933C20.2212 0 18.7975 0 15.95 0H8.05C5.20255 0 3.77882 0 2.69513 0.562933C1.78191 1.03731 1.03731 1.78191 0.562933 2.69513ZM3.87635 11.186L18.3255 5.61298C18.9854 5.31347 19.6224 5.7716 19.3704 6.7816L16.9099 18.3768C16.7381 19.2008 16.2401 19.398 15.5503 19.0174L11.8018 16.2479L11.7309 16.3168C10.8794 17.1447 10.1293 17.874 10.0001 18.0005L9.98627 18.014C9.78378 18.212 9.61661 18.3754 9.24996 18.3754C8.86935 18.3754 8.8376 18.2628 8.76113 17.9916C8.73998 17.9166 8.71541 17.8295 8.67909 17.7292L7.30025 13.5018L3.6966 12.377C2.89602 12.1318 2.89017 11.5817 3.87635 11.186ZM15.9885 8.11875L7.8658 13.2434L9.23456 17.4397L9.50537 14.5513L16.4605 8.27602C16.7657 8.00505 16.3939 7.87283 15.9885 8.11875Z" fill="#9290A2"/>
</g>
<defs>
<clipPath id="clip0_116_336">
<rect width="24" height="24" fill="white"/>
</clipPath>
</defs>
</svg>
